{
	"asset":{
		"generator":"Khronos glTF Blender I/O v4.0.43",
		"version":"2.0"
	},
	"scene":0,
	"scenes":[
		{
			"name":"Scene",
			"nodes":[
				4
			]
		}
	],
	"nodes":[
		{
			"mesh":0,
			"name":"Object_2"
		},
		{
			"mesh":1,
			"name":"Object_3"
		},
		{
			"mesh":2,
			"name":"Object_4"
		},
		{
			"children":[
				0,
				1,
				2
			],
			"name":"Hexapod.obj.cleaner.materialmerger.gles"
		},
		{
			"children":[
				3
			],
			"name":"Sketchfab_model",
			"rotation":[
				-0.5,
				-0.5,
				-0.5,
				0.5
			],
			"scale":[
				0.07999999821186066,
				0.07999999821186066,
				0.07999999821186066
			],
			"translation":[
				1.1202400922775269,
				-0.992165207862854,
				0
			]
		}
	],
	"materials":[
		{
			"doubleSided":true,
			"emissiveFactor":[
				1,
				1,
				1
			],
			"emissiveTexture":{
				"index":0
			},
			"name":"lambert2",
			"normalTexture":{
				"index":1
			},
			"occlusionTexture":{
				"index":2
			},
			"pbrMetallicRoughness":{
				"baseColorTexture":{
					"index":3
				},
				"metallicRoughnessTexture":{
					"index":2
				}
			}
		},
		{
			"doubleSided":true,
			"name":"lambert3",
			"normalTexture":{
				"index":4
			},
			"occlusionTexture":{
				"index":5
			},
			"pbrMetallicRoughness":{
				"baseColorTexture":{
					"index":6
				},
				"metallicRoughnessTexture":{
					"index":5
				}
			}
		},
		{
			"doubleSided":true,
			"name":"lambert4",
			"normalTexture":{
				"index":7
			},
			"occlusionTexture":{
				"index":8
			},
			"pbrMetallicRoughness":{
				"baseColorTexture":{
					"index":9
				},
				"metallicRoughnessTexture":{
					"index":8
				}
			}
		}
	],
	"meshes":[
		{
			"name":"Object_0",
			"primitives":[
				{
					"attributes":{
						"POSITION":0,
						"NORMAL":1,
						"TEXCOORD_0":2
					},
					"indices":3,
					"material":0
				}
			]
		},
		{
			"name":"Object_1",
			"primitives":[
				{
					"attributes":{
						"POSITION":4,
						"NORMAL":5,
						"TEXCOORD_0":6
					},
					"indices":7,
					"material":1
				}
			]
		},
		{
			"name":"Object_2",
			"primitives":[
				{
					"attributes":{
						"POSITION":8,
						"NORMAL":9,
						"TEXCOORD_0":10
					},
					"indices":11,
					"material":2
				}
			]
		}
	],
	"textures":[
		{
			"sampler":0,
			"source":0
		},
		{
			"sampler":0,
			"source":1
		},
		{
			"sampler":0,
			"source":2
		},
		{
			"sampler":0,
			"source":3
		},
		{
			"sampler":0,
			"source":4
		},
		{
			"sampler":0,
			"source":5
		},
		{
			"sampler":0,
			"source":6
		},
		{
			"sampler":0,
			"source":7
		},
		{
			"sampler":0,
			"source":8
		},
		{
			"sampler":0,
			"source":9
		}
	],
	"images":[
		{
			"mimeType":"image/png",
			"name":"lambert2_emissive",
			"uri":"Textures/lambert2_emissive.png"
		},
		{
			"mimeType":"image/png",
			"name":"lambert2_normal",
			"uri":"Textures/lambert2_normal.png"
		},
		{
			"mimeType":"image/png",
			"name":"lambert2_metallicRoughness",
			"uri":"Textures/lambert2_metallicRoughness.png"
		},
		{
			"mimeType":"image/png",
			"name":"lambert2_baseColor",
			"uri":"Textures/lambert2_baseColor.png"
		},
		{
			"mimeType":"image/png",
			"name":"lambert3_normal",
			"uri":"Textures/lambert3_normal.png"
		},
		{
			"mimeType":"image/png",
			"name":"lambert3_metallicRoughness",
			"uri":"Textures/lambert3_metallicRoughness.png"
		},
		{
			"mimeType":"image/png",
			"name":"lambert3_baseColor",
			"uri":"Textures/lambert3_baseColor.png"
		},
		{
			"mimeType":"image/png",
			"name":"lambert4_normal",
			"uri":"Textures/lambert4_normal.png"
		},
		{
			"mimeType":"image/png",
			"name":"lambert4_metallicRoughness",
			"uri":"Textures/lambert4_metallicRoughness.png"
		},
		{
			"mimeType":"image/png",
			"name":"lambert4_baseColor",
			"uri":"Textures/lambert4_baseColor.png"
		}
	],
	"accessors":[
		{
			"bufferView":0,
			"componentType":5126,
			"count":15384,
			"max":[
				6.321670055389404,
				-4.259190082550049,
				21.599300384521484
			],
			"min":[
				-6.321670055389404,
				-31.287599563598633,
				10.89430046081543
			],
			"type":"VEC3"
		},
		{
			"bufferView":1,
			"componentType":5126,
			"count":15384,
			"type":"VEC3"
		},
		{
			"bufferView":2,
			"componentType":5126,
			"count":15384,
			"type":"VEC2"
		},
		{
			"bufferView":3,
			"componentType":5123,
			"count":43584,
			"type":"SCALAR"
		},
		{
			"bufferView":4,
			"componentType":5126,
			"count":3524,
			"max":[
				12.94909954071045,
				13.45460033416748,
				21.128700256347656
			],
			"min":[
				-12.94909954071045,
				-16.044200897216797,
				10.096599578857422
			],
			"type":"VEC3"
		},
		{
			"bufferView":5,
			"componentType":5126,
			"count":3524,
			"type":"VEC3"
		},
		{
			"bufferView":6,
			"componentType":5126,
			"count":3524,
			"type":"VEC2"
		},
		{
			"bufferView":7,
			"componentType":5123,
			"count":9840,
			"type":"SCALAR"
		},
		{
			"bufferView":8,
			"componentType":5126,
			"count":30951,
			"max":[
				19.815900802612305,
				6.139810085296631,
				18.291200637817383
			],
			"min":[
				-19.815900802612305,
				-20.320199966430664,
				0.4006679952144623
			],
			"type":"VEC3"
		},
		{
			"bufferView":9,
			"componentType":5126,
			"count":30951,
			"type":"VEC3"
		},
		{
			"bufferView":10,
			"componentType":5126,
			"count":30951,
			"type":"VEC2"
		},
		{
			"bufferView":11,
			"componentType":5123,
			"count":108996,
			"type":"SCALAR"
		}
	],
	"bufferViews":[
		{
			"buffer":0,
			"byteLength":184608,
			"byteOffset":0,
			"target":34962
		},
		{
			"buffer":0,
			"byteLength":184608,
			"byteOffset":184608,
			"target":34962
		},
		{
			"buffer":0,
			"byteLength":123072,
			"byteOffset":369216,
			"target":34962
		},
		{
			"buffer":0,
			"byteLength":87168,
			"byteOffset":492288,
			"target":34963
		},
		{
			"buffer":0,
			"byteLength":42288,
			"byteOffset":579456,
			"target":34962
		},
		{
			"buffer":0,
			"byteLength":42288,
			"byteOffset":621744,
			"target":34962
		},
		{
			"buffer":0,
			"byteLength":28192,
			"byteOffset":664032,
			"target":34962
		},
		{
			"buffer":0,
			"byteLength":19680,
			"byteOffset":692224,
			"target":34963
		},
		{
			"buffer":0,
			"byteLength":371412,
			"byteOffset":711904,
			"target":34962
		},
		{
			"buffer":0,
			"byteLength":371412,
			"byteOffset":1083316,
			"target":34962
		},
		{
			"buffer":0,
			"byteLength":247608,
			"byteOffset":1454728,
			"target":34962
		},
		{
			"buffer":0,
			"byteLength":217992,
			"byteOffset":1702336,
			"target":34963
		}
	],
	"samplers":[
		{
			"magFilter":9729,
			"minFilter":9987
		}
	],
	"buffers":[
		{
			"byteLength":1920328,
			"uri":"Hexapod.bin"
		}
	]
}
